:SAMPLES-PER-SECOND 30
:FULLY-SPECIFIED
:DEGREES
288
root  34.87286004 36.51972192 -14.81712822 8.123281479 -5.019058704 3.659487724
lowerback  -7.48418951 -0.8699579239 -0.4241877198
upperback  -3.61578989 -0.7223529816 -3.354419947
thorax  0.4233660102 -0.2248709947 -3.277479887
lowerneck  -12.65579987 1.255010009 1.654729962
upperneck  14.7258997 0.8793430328 4.809760094
head  6.562749863 1.047160029 1.367230058
lclavicle  0 -4.497500157e-015 -2.743230041e-014
lhumerus  -47.90779877 28.60969925 64.51010132
lradius  0.004719055258 -6.507048965e-006 30.88359833
lwrist  4.824992743e-007 -3.790274832e-007 -27.30699921
lhand  -4.396552911e-031 -36.56729889 -10.55500031
lfingers  90 7.125020027 -90
lthumb  94.63550456 -25.4046042 100.7025729
rclavicle  0 -4.497500157e-015 -2.743230041e-014
rhumerus  -57.65819931 -16.36940002 -29.26110077
rradius  -5.16745672e-007 2.214343908e-008 103.6900024
rwrist  -7.499573258e-005 0.03438235447 175.071991
rhand  -1.769389492e-031 3.769049883 -4.769139767
rfingers  -90 -7.125020027 -90
rthumb  -83.82763224 -10.8918451 -60.21578319
rfemur  -11.76601601 16.56079674 12.8585968
rtibia  -1.126405597 -0.852302134 20.6894474
rfoot  0.2723356187 -21.61470032 -36.44644165
rtoes  3.878572551 19.6354383 -101.4067299
lfemur  -7.437814236 -17.06621933 -20.72356224
ltibia  2.655695438 -1.05491221 14.47009659
lfoot  0.8250627518 -23.39718246 37.6462059
ltoes  -8.61159404 -18.11996497 -115.9634103
289
root  34.87155644 36.52007336 -14.81469672 8.126233101 -4.990684032 3.647251844
lowerback  -7.516419411 -0.8535559177 -0.4224019051
upperback  -3.601200104 -0.7004039884 -3.356760025
thorax  0.457291007 -0.2139759958 -3.28312993
lowerneck  -12.70960045 1.316759944 1.674399972
upperneck  14.76140022 0.9520260096 4.852039814
head  6.582210064 1.089110017 1.385519981
lclavicle  0 -4.497500157e-015 -2.743230041e-014
lhumerus  -47.87620163 28.61179924 64.53150177
lradius  0.004719055258 -6.507048965e-006 30.82350159
lwrist  4.824992743e-007 -3.790274832e-007 -27.51390076
lhand  -4.392785322e-031 -36.50099945 -10.54769993
lfingers  90 7.125020027 -90
lthumb  94.60313379 -25.39963106 100.6311256
rclavicle  0 -4.497500157e-015 -2.743230041e-014
rhumerus  -58.03229904 -16.19129944 -30.37630272
rradius  -5.16745672e-007 2.214343908e-008 103.875
rwrist  -7.499573258e-005 0.03438235447 175.5359344
rhand  -0 4.070199966 -4.733369827
rfingers  -90 -7.125020027 -90
rthumb  -83.72876987 -10.93529911 -59.91642789
rfemur  -11.75144768 16.57211876 12.88389492
rtibia  -1.126528978 -0.8396443725 20.67599678
rfoot  0.2758871317 -21.60230064 -36.46090698
rtoes  3.882666166 19.63465998 -101.4189123
lfemur  -7.366167068 -17.09031868 -20.73732376
ltibia  2.709692717 -1.043772459 14.38191795
lfoot  0.8237448931 -23.36291504 37.65726471
ltoes  -8.628123115 -18.11230623 -116.016568
290
root  34.87053218 36.52039776 -14.81155936 8.130395889 -4.967987537 3.64406085
lowerback  -7.543350697 -0.8348440528 -0.4192613661
upperback  -3.590009928 -0.6751270294 -3.350963593
thorax  0.4852319956 -0.2013520002 -3.273881197
lowerneck  -12.72850037 1.362769961 1.697720051
upperneck  14.77509975 1.007150054 4.875150204
head  6.589869976 1.119975686 1.394102454
lclavicle  0 -4.497500157e-015 -2.743230041e-014
lhumerus  -47.84540176 28.61400032 64.5848999
lradius  0.004719055258 -6.507048965e-006 30.83609962
lwrist  4.824992743e-007 -3.790274832e-007 -27.49510002
lhand  -4.391407539e-031 -36.47669983 -10.60540009
lfingers  90 7.125020027 -90
lthumb  94.60356775 -25.45724557 100.6101567
rclavicle  0 -4.497500157e-015 -2.743230041e-014
rhumerus  -58.26229858 -15.96419907 -31.39560127
rradius  -5.16745672e-007 2.214343908e-008 103.8320007
rwrist  -7.499573258e-005 0.03438235447 175.2570038
rhand  -0 3.684380054 -4.708909988
rfingers  -90 -7.125020027 -90
rthumb  -83.81974998 -10.94074755 -60.2932657
rfemur  -11.74887753 16.58221626 12.89642715
rtibia  -1.127494931 -0.8263984323 20.67828941
rfoot  0.264154911 -21.58469963 -36.50159454
rtoes  3.882701469 19.63465326 -101.4190174
lfemur  -7.301795959 -17.07619286 -20.75638008
ltibia  2.763653755 -1.019812226 14.29195786
lfoot  0.8296826482 -23.36240578 37.66276932
ltoes  -8.566914585 -18.14057534 -115.819829
291
root  34.86944784 36.52079124 -14.80945527 8.136566162 -4.943145752 3.637811661
lowerback  -7.573329926 -0.8200520277 -0.4210879505
upperback  -3.576539993 -0.6551780105 -3.346570015
thorax  0.5168989897 -0.1914429963 -3.267250061
lowerneck  -12.77159977 1.408990026 1.696879983
upperneck  14.81779957 1.060649991 4.935490131
head  6.609000206 1.153660059 1.420510054
lclavicle  0 -4.497500157e-015 -2.743230041e-014
lhumerus  -47.8022995 28.53350067 64.709198
lradius  0.004719055258 -6.507048965e-006 30.89179993
lwrist  4.824992743e-007 -3.790274832e-007 -27.25279999
lhand  -4.390971405e-031 -36.46900177 -10.60270023
lfingers  90 7.125020027 -90
lthumb  94.59940586 -25.45479592 100.6016721
rclavicle  0 -4.497500157e-015 -2.743230041e-014
rhumerus  -58.49039841 -15.81830311 -32.54439545
rradius  -5.16745672e-007 2.214343908e-008 103.9499969
rwrist  -7.499573258e-005 0.03438235447 175.4530029
rhand  -1.769504725e-031 3.825269938 -5.097290039
rfingers  -90 -7.125020027 -90
rthumb  -83.97874277 -10.60948621 -60.19151198
rfemur  -11.72843742 16.57106018 12.90491581
rtibia  -1.116345644 -0.8240889907 20.6463604
rfoot  0.2773355544 -21.57661819 -36.51100159
rtoes  3.874443094 19.63622256 -101.3944414
lfemur  -7.333930492 -17.090765 -20.73279953
ltibia  2.739284515 -1.020441175 14.33085918
lfoot  0.8212720752 -23.37999725 37.62811661
ltoes  -8.554536812 -18.14626147 -115.7800797
292
root  34.86831845 36.52149411 -14.80616622 8.150906563 -4.916708946 3.632465839
lowerback  -7.575640202 -0.8032869697 -0.4044228494
upperback  -3.565330029 -0.6342189908 -3.354520082
thorax  0.5305299759 -0.1813620031 -3.283370018
lowerneck  -12.79489994 1.452739954 1.718760014
upperneck  14.83759975 1.109159946 4.987380028
head  6.618549824 1.184620023 1.438850164
lclavicle  0 -4.497500157e-015 -2.743230041e-014
lhumerus  -47.77080154 28.54240036 64.75479889
lradius  0.004719055258 -6.507048965e-006 30.91389847
lwrist  4.824992743e-007 -3.790274832e-007 -27.20730019
lhand  -0 -36.45040131 -10.60550022
lfingers  90 7.125020027 -90
lthumb  94.59130475 -25.45819728 100.5820529
rclavicle  0 -4.497500157e-015 -2.743230041e-014
rhumerus  -58.6493988 -15.64680099 -33.68170166
rradius  -5.16745672e-007 2.214343908e-008 103.7990036
rwrist  -7.499573258e-005 0.03438235447 175.8370056
rhand  -1.769468466e-031 3.807670116 -4.695040226
rfingers  -90 -7.125020027 -90
rthumb  -83.7797473 -10.95780014 -60.17068882
rfemur  -11.72090626 16.54155159 12.90400791
rtibia  -1.10602212 -0.8344119787 20.61759758
rfoot  0.281514585 -21.59236336 -36.52196121
rtoes  3.869032132 19.63724889 -101.37834
lfemur  -7.371003151 -17.14393044 -20.71130562
ltibia  2.717138052 -1.047671437 14.36722183
lfoot  0.8091199398 -23.33034134 37.61356354
ltoes  -8.575013574 -18.13684925 -115.8458441
293
root  34.86695177 36.52240723 -14.80222537 8.172821999 -4.884062767 3.640962362
lowerback  -7.561650276 -0.7954180241 -0.384185791
upperback  -3.556390047 -0.626560986 -3.354140043
thorax  0.5321769714 -0.1782699972 -3.293679953
lowerneck  -12.79329967 1.490610003 1.732789993
upperneck  14.82740021 1.151170015 5.049240112
head  6.614140034 1.211730003 1.460330009
lclavicle  0 -4.497500157e-015 -2.743230041e-014
lhumerus  -47.79460144 28.60580063 64.73899841
lradius  0.004719055258 -6.507048965e-006 30.92790031
lwrist  4.824992743e-007 -3.790274832e-007 -27.33779907
lhand  -4.385901518e-031 -36.37929916 -10.68710041
lfingers  90 7.125020027 -90
lthumb  94.57459891 -25.540752 100.5131587
rclavicle  0 -4.497500157e-015 -2.743230041e-014
rhumerus  -58.82020187 -15.59129906 -34.83380127
rradius  -5.16745672e-007 2.214343908e-008 103.7259979
rwrist  -7.499573258e-005 0.03438235447 176.3710022
rhand  -1.770005545e-031 4.060510159 -5.005809784
rfingers  -90 -7.125020027 -90
rthumb  -83.87027243 -10.69916081 -59.9519694
rfemur  -11.74068356 16.51366997 12.8972826
rtibia  -1.109773755 -0.8309822083 20.63018227
rfoot  0.2758861184 -21.57870102 -36.52355576
rtoes  3.863158045 19.63836137 -101.3608614
lfemur  -7.361262798 -17.13669968 -20.7244339
ltibia  2.749441624 -1.021012664 14.31209278
lfoot  0.815290451 -23.35593414 37.61213303
ltoes  -8.568016355 -18.14006871 -115.8233677
294
root  34.86611374 36.52305303 -14.80055832 8.187783241 -4.862124443 3.644641399
lowerback  -7.57945013 -0.7926639915 -0.3910161257
upperback  -3.539030075 -0.6233929992 -3.343549967
thorax  0.5603619814 -0.1770119965 -3.278860092
lowerneck  -12.81610012 1.573240042 1.856099963
upperneck  14.86769962 1.245990038 5.015319824
head  6.630760193 1.263659954 1.439110041
lclavicle  0 -4.497500157e-015 -2.743230041e-014
lhumerus  -47.7521019 28.62610054 64.78420258
lradius  0.004719055258 -6.507048965e-006 30.95770264
lwrist  4.824992743e-007 -3.790274832e-007 -27.21069908
lhand  -0 -36.34569931 -10.66759968
lfingers  90 7.125020027 -90
lthumb  94.55495844 -25.52278053 100.4755595
rclavicle  0 -4.497500157e-015 -2.743230041e-014
rhumerus  -58.9396019 -15.46899986 -35.95190048
rradius  -5.16745672e-007 2.214343908e-008 103.4309998
rwrist  -7.499573258e-005 0.03438235447 176.4640045
rhand  -0 3.965660095 -4.691810131
rfingers  -90 -7.125020027 -90
rthumb  -83.73572903 -10.96697402 -60.01514695
rfemur  -11.76550579 16.48745346 12.89452934
rtibia  -1.116322398 -0.8280287385 20.65107918
rfoot  0.2641549706 -21.57171059 -36.52701569
rtoes  3.873909414 19.63632385 -101.3928533
lfemur  -7.33063364 -17.10953712 -20.74447441
ltibia  2.789012909 -0.9900109172 14.24544048
lfoot  0.8135042787 -23.38743019 37.58734512
ltoes  -8.568534786 -18.13983029 -115.8250329
